<svg xmlns="http://www.w3.org/2000/svg" viewBox="0 0 433.38 110.00" width="433" height="110" role="img" lang="pl" aria-label="Zorya">
  <title>Zorya</title>
  <g fill="#0E1219" transform="translate(20.00 90.00)"><path d="M3.143712574850299 0.0V-13.41317365269461L37.30538922155689 -54.281437125748496H4.715568862275449V-70.0H60.67365269461077V-56.58682634730538L26.82634730538922 -15.718562874251496H62.24550898203592V0.0Z M113.38323353293413 1.2574850299401197Q102.58982035928143 1.2574850299401197 94.31137724550898 -3.2485029940119756Q86.03293413173652 -7.754491017964071 81.36976047904191 -15.87574850299401Q76.7065868263473 -23.99700598802395 76.7065868263473 -35.0Q76.7065868263473 -46.00299401197604 81.36976047904191 -54.124251497005986Q86.03293413173652 -62.24550898203592 94.31137724550898 -66.75149700598801Q102.58982035928143 -71.25748502994011 113.38323353293413 -71.25748502994011Q124.17664670658681 -71.25748502994011 132.45508982035926 -66.75149700598801Q140.73353293413174 -62.24550898203592 145.39670658682635 -54.124251497005986Q150.05988023952096 -46.00299401197604 150.05988023952096 -35.0Q150.05988023952096 -23.99700598802395 145.39670658682635 -15.87574850299401Q140.73353293413174 -7.754491017964071 132.45508982035926 -3.2485029940119756Q124.17664670658681 1.2574850299401197 113.38323353293413 1.2574850299401197ZM113.38323353293413 -13.41317365269461Q118.20359281437125 -13.41317365269461 122.18562874251495 -15.823353293413172Q126.16766467065867 -18.233532934131734 128.57784431137725 -23.053892215568858Q130.9880239520958 -27.874251497005986 130.9880239520958 -35.0Q130.9880239520958 -42.12574850299401 128.57784431137725 -46.946107784431135Q126.16766467065867 -51.76646706586826 122.18562874251495 -54.17664670658682Q118.20359281437125 -56.58682634730538 113.38323353293413 -56.58682634730538Q108.56287425149699 -56.58682634730538 104.58083832335328 -54.17664670658682Q100.59880239520957 -51.76646706586826 98.188622754491 -46.946107784431135Q95.77844311377245 -42.12574850299401 95.77844311377245 -35.0Q95.77844311377245 -27.874251497005986 98.188622754491 -23.053892215568858Q100.59880239520957 -18.233532934131734 104.58083832335328 -15.823353293413172Q108.56287425149699 -13.41317365269461 113.38323353293413 -13.41317365269461Z M167.03592814371257 0.0V-70.0H200.14970059880238Q207.38023952095807 -70.0 213.51047904191614 -67.74700598802394Q219.6407185628742 -65.4940119760479 223.36077844311373 -60.621257485029936Q227.08083832335325 -55.74850299401197 227.08083832335325 -47.88922155688623Q227.08083832335325 -39.29640718562874 222.57485029940116 -34.26646706586826Q218.06886227544908 -29.236526946107784 211.04790419161674 -27.245508982035926L230.64371257485027 0.0H209.8952095808383L191.9760479041916 -25.673652694610777H184.8502994011976V0.0ZM184.8502994011976 -40.76347305389221H199.1017964071856Q201.8263473053892 -40.76347305389221 203.86976047904187 -41.49700598802395Q205.91317365269458 -42.23053892215569 207.11826347305387 -43.80239520958084Q208.32335329341316 -45.374251497005986 208.32335329341316 -47.88922155688623Q208.32335329341316 -50.40419161676646 207.11826347305387 -51.97604790419162Q205.91317365269458 -53.547904191616766 203.86976047904187 -54.22904191616766Q201.8263473053892 -54.91017964071856 199.1017964071856 -54.91017964071856H184.8502994011976Z M266.69161676646706 0.0V-27.45508982035928L239.76047904191614 -70.0H260.6137724550898L275.4940119760479 -44.32634730538922L290.47904191616766 -70.0H311.437125748503L284.50598802395206 -27.45508982035928V0.0Z M320.2395209580838 0.0 346.751497005988 -70.0H366.34730538922156L392.96407185628743 0.0H373.47305389221555L369.49101796407183 -11.946107784431137H343.6077844311377L339.7305389221557 0.0ZM348.32335329341316 -26.302395209580837H364.77544910179637L356.49700598802394 -51.032934131736525Z"/></g>
</svg>
